<svg width="28" height="32" viewBox="0 0 28 32" fill="none" xmlns="http://www.w3.org/2000/svg">
<path d="M27.5716 10.3791C26.7666 8.43661 24.9957 7.18596 23.0462 6.9538C22.814 5.00433 21.5646 3.23336 19.6209 2.42837C17.6784 1.62338 15.5423 1.99204 14 3.20653C12.4577 1.99204 10.3216 1.62338 8.37908 2.42837C6.43661 3.23336 5.18596 5.00433 4.9538 6.9538C3.00433 7.18596 1.23336 8.43545 0.428372 10.3791C-0.376616 12.3216 -0.00795656 14.4577 1.20653 16C-0.00795656 17.5423 -0.376616 19.6784 0.428372 21.6209C1.23336 23.5634 3.00433 24.814 4.9538 25.0462C5.18596 26.9957 6.43545 28.7666 8.37908 29.5716C10.3216 30.3766 12.4577 30.008 14 28.7935C15.5423 30.008 17.6784 30.3766 19.6209 29.5716C21.5634 28.7666 22.814 26.9957 23.0462 25.0462C24.9957 24.814 26.7666 23.5646 27.5716 21.6209C28.3766 19.6784 28.008 17.5423 26.7935 16C28.008 14.4577 28.3766 12.3216 27.5716 10.3791ZM24.844 14.9803L23.6004 16.224L20.9556 18.87V21.8321L20.9602 21.8367L25.264 17.533C25.8928 18.4663 26.0585 19.6866 25.5953 20.8043C25.0423 22.1401 23.7509 22.9462 22.3894 22.9474H20.6301H16.8898L14.7957 25.0427V25.0485H20.8821C20.6674 26.1533 19.9207 27.1333 18.8031 27.5953C17.4673 28.1483 15.9833 27.8053 15.0208 26.8428L13.7772 25.5992L11.1312 22.9544H8.16909L8.16442 22.9591L12.4682 27.2628C11.5349 27.8917 10.3146 28.0573 9.19691 27.5942C7.86109 27.0412 7.05494 25.7497 7.05377 24.3882H7.0211V22.6441V18.8898L4.9258 16.7957H4.91997V22.8762C3.82799 22.6534 2.86317 21.9102 2.40468 20.8031C1.85168 19.4673 2.19468 17.9833 3.15716 17.0208L4.40081 15.7772L7.04444 13.1312V10.1691L7.03977 10.1644L2.736 14.4682C2.10718 13.5349 1.94152 12.3146 2.40468 11.1969C2.95767 9.86109 4.24915 9.05494 5.61063 9.05377H7.36993H11.1102L13.2043 6.95847V6.95264H7.11794C7.3326 5.84782 8.07926 4.86783 9.19691 4.40584C10.5327 3.85285 12.0167 4.19584 12.9792 5.15833L14.2228 6.40198L16.8688 9.04677H19.8309L19.8356 9.0421L15.5318 4.73834C16.4651 4.10951 17.6854 3.94385 18.8031 4.40701C20.1389 4.96 20.9451 6.25148 20.9462 7.61296V9.37227V13.1125L23.0415 15.2067H23.0474V9.12027C24.1522 9.33493 25.1322 10.0816 25.5942 11.1992C26.1471 12.5351 25.8042 14.019 24.8417 14.9815L24.844 14.9803Z" fill="#003B38"/>
</svg>
